# xmcd CD database file
#
# Track frame offsets:
#	150
#	19630
#	43107
#	62095
#	85270
#	102010
#	121962
#	142992
#	166960
#	182747
#	204780
#	223180
#	246385
#
# Disc length: 3592 seconds
#
# Revision: 0
# Processed by: cddbd v1.4b41PL3 Copyright (c) Steve Scherf et al.
# Submitted via: Feurio! 1.61 - http://www.feurio.com
#
DISCID=b00e060d
DTITLE=Various Artist - Country Club
DYEAR=1900
DGENRE=
TTITLE0=Tim McGraw - Indian Outlaw
TTITLE1=Sawyer Brown - Thank God For You
TTITLE2=Wynonna - No One Else On Earth
TTITLE3=Hal Ketchum - Hearts Are Gonna Roll
TTITLE4=Tanya Tucker and Delbert McClinton - Tell Me About It
TTITLE5=Hank Williams Jr. - All My Rowdy Friends Are Coming Over Tonight
TTITLE6=Kimber Clayton - If Wishes Were Horses
TTITLE7=Boy Howdy - If This Is Love
TTITLE8=Rick Vincent - Hello, She Lied
TTITLE9=Lyle Lovett - I've Been To Memphis
TTITLE10=Junior Brown - Sugarfoot Rag
TTITLE11=Sawyer Brown - The Boys And Me
TTITLE12=Ronnie McDowell - Yippy Ti Yi Yo
EXTD=
EXTT0=
EXTT1=
EXTT2=
EXTT3=
EXTT4=
EXTT5=
EXTT6=
EXTT7=
EXTT8=
EXTT9=
EXTT10=
EXTT11=
EXTT12=
PLAYORDER=
